<svg width="308" height="320" viewBox="0 0 308 320" fill="none" xmlns="http://www.w3.org/2000/svg">
<g clip-path="url(#clip0_101_14)">
<path d="M122.608 147.767C124.405 142.328 127.6 137.467 131.736 133.693L58.554 54.564C76.142 38.382 97.87 26.635 121.965 21.076L117.223 0.834991C61.792 13.737 17.352 55.252 0.304016 108.967L122.596 147.786C122.6 147.779 122.604 147.773 122.608 147.767Z" fill="#BF388C"/>
<path d="M153.665 17.474C142.762 17.474 132.153 18.725 121.964 21.076L146.532 125.941C148.919 125.392 151.402 125.097 153.955 125.097C158.819 125.097 163.433 126.157 167.59 128.046L212.364 30.295C194.502 22.069 174.621 17.474 153.665 17.474Z" fill="#F26E1E"/>
<path d="M120.94 158.112C120.94 158.001 120.947 157.891 120.948 157.78L13.168 157.879C13.168 157.933 13.166 157.987 13.166 158.041C13.166 214.874 46.926 263.766 95.467 285.901L140.131 188.093C128.804 182.862 120.94 171.409 120.94 158.112Z" fill="#0F3780"/>
<path d="M288.089 198.757C280.722 223.012 266.977 244.49 248.802 261.237L176.48 182.243C172.264 186.18 167.016 189.022 161.185 190.325L185.689 294.797C157.582 301.623 127.146 299.687 98.538 287.301C97.5 286.853 96.488 286.375 95.467 285.902L86.899 304.667C107.27 313.973 129.914 319.165 153.773 319.165C226.477 319.165 287.924 271.004 307.975 204.847L288.089 198.757Z" fill="#0EB4DA"/>
<path d="M185.644 167.383C183.956 173.162 180.771 178.249 176.48 182.243L248.802 261.237C266.992 244.477 280.727 223.035 288.089 198.757L185.644 167.383Z" fill="#009B43"/>
<path d="M247.715 53.592L175.805 133.369C182.651 139.418 186.973 148.258 186.973 158.112C186.973 161.332 186.504 164.441 185.644 167.383L288.089 198.757C292.007 185.837 294.118 172.132 294.118 157.932C294.118 116.528 276.207 79.309 247.715 53.592Z" fill="#CADA4F"/>
<path d="M146.534 125.944L121.965 21.076C97.87 26.634 76.143 38.382 58.555 54.564L131.737 133.693C135.852 129.946 140.921 127.234 146.534 125.944Z" fill="#B81200"/>
<path d="M161.186 190.326C158.866 190.843 156.462 191.112 153.986 191.112C149.072 191.112 144.323 190.021 140.132 188.095L95.468 285.903C96.489 286.376 97.501 286.854 98.539 287.302C127.147 299.688 157.582 301.624 185.69 294.798L161.186 190.326Z" fill="#0A2555"/>
</g>
<defs>
<clipPath id="clip0_101_14">
<rect width="308" height="320" fill="white"/>
</clipPath>
</defs>
</svg>
