<svg width="56" height="41" viewBox="0 0 56 41" fill="none" xmlns="http://www.w3.org/2000/svg">
<g clip-path="url(#clip0_73_1565)">
<path d="M22.4004 0H56.0004V41H22.4004V0Z" fill="#FF0000"/>
<path d="M0 0H22.4V41H0V0Z" fill="#006600"/>
<path fill-rule="evenodd" clip-rule="evenodd" d="M29.7057 26.1545C26.8794 26.0691 13.9557 18.1937 13.8682 16.9295L14.5769 15.7764C15.8632 17.5957 29.0757 25.2576 30.3794 24.9843L29.7057 26.1545Z" fill="#FFFF00" stroke="black" stroke-width="0.075" stroke-linecap="round" stroke-linejoin="round"/>
<path fill-rule="evenodd" clip-rule="evenodd" d="M14.4279 15.6139C14.1742 16.2802 17.8054 18.4668 22.1629 21.0635C26.5292 23.6516 30.2917 25.2489 30.5629 25.0268L30.6942 24.7877C30.6417 24.8731 30.5192 24.8987 30.3179 24.8389C29.1367 24.5058 26.0654 23.1306 22.2592 20.8756C18.4442 18.6206 15.1367 16.545 14.6204 15.6652C14.5802 15.5827 14.5621 15.4916 14.5679 15.4004H14.5504L14.4454 15.5883L14.4279 15.6139ZM29.7667 26.1885C29.7229 26.2739 29.6267 26.2739 29.4604 26.2568C28.4104 26.1458 25.2079 24.6254 21.4192 22.4131C17.0092 19.8335 13.3692 17.4931 13.7717 16.8781L13.8767 16.6902L13.8942 16.6987C13.5442 17.7408 21.0779 21.9433 21.5242 22.2166C25.8817 24.8475 29.5567 26.3935 29.8804 25.9921L29.7667 26.1885Z" fill="#FFFF00" stroke="black" stroke-width="0.075" stroke-linecap="round" stroke-linejoin="round"/>
<path fill-rule="evenodd" clip-rule="evenodd" d="M22.4172 17.698C25.2347 17.6724 28.7172 17.3221 30.7297 16.5363L30.2922 15.853C29.111 16.4936 25.611 16.9207 22.391 16.9805C18.5935 16.9463 15.9072 16.5961 14.5597 15.7163L14.1572 16.4509C16.6247 17.4759 19.1622 17.6894 22.4172 17.698Z" fill="#FFFF00" stroke="black" stroke-width="0.075" stroke-linecap="round" stroke-linejoin="round"/>
<path fill-rule="evenodd" clip-rule="evenodd" d="M30.8438 16.5536C30.7738 16.6646 29.4613 17.1003 27.5363 17.4249C25.8394 17.676 24.1251 17.7987 22.4088 17.7921C20.7644 17.7982 19.1215 17.6955 17.4913 17.4846C15.4701 17.1771 14.4288 16.7501 14.0351 16.5963L14.1313 16.4084C15.2426 16.8355 16.2926 17.0917 17.5176 17.2796C19.1359 17.493 20.7671 17.5985 22.4001 17.5957C24.1075 17.5974 25.8126 17.4746 27.5013 17.2284C29.4701 16.9124 30.5463 16.5109 30.7038 16.3315L30.8438 16.5536ZM30.4588 15.8617C30.2488 16.0326 29.1813 16.3999 27.3088 16.6903C25.6919 16.9187 24.0601 17.0329 22.4263 17.0319C20.5013 17.0319 18.9176 16.8953 17.7188 16.7244C15.8113 16.4853 14.7963 16.0411 14.4288 15.9215L14.5426 15.7336C14.8313 15.8788 15.8026 16.2632 17.7363 16.528C19.2908 16.7312 20.858 16.8283 22.4263 16.8184C24.0485 16.8189 25.6686 16.7047 27.2738 16.4767C29.1551 16.2205 30.1701 15.7592 30.3276 15.6396L30.4588 15.8617ZM13.1513 21.0124C14.8838 21.9263 18.7426 22.379 22.3913 22.4132C25.7163 22.4217 30.0388 21.9178 31.6576 21.0807L31.6138 20.1667C31.1063 20.9355 26.4688 21.6786 22.3563 21.653C18.2438 21.6188 14.4201 21.0038 13.1426 20.2009V21.0124" fill="#FFFF00"/>
<path d="M13.1513 21.0124C14.8838 21.9263 18.7426 22.379 22.3913 22.4132C25.7163 22.4217 30.0388 21.9178 31.6576 21.0807L31.6138 20.1667C31.1063 20.9355 26.4688 21.6786 22.3563 21.653C18.2438 21.6188 14.4201 21.0038 13.1426 20.2009V21.0124M30.8438 16.5536C30.7738 16.6646 29.4613 17.1003 27.5363 17.4249C25.8394 17.676 24.1251 17.7987 22.4088 17.7921C20.7644 17.7982 19.1215 17.6955 17.4913 17.4846C15.4701 17.1771 14.4288 16.7501 14.0351 16.5963L14.1313 16.4084C15.2426 16.8355 16.2926 17.0917 17.5176 17.2796C19.1359 17.493 20.7671 17.5985 22.4001 17.5957C24.1075 17.5974 25.8126 17.4746 27.5013 17.2284C29.4701 16.9124 30.5463 16.5109 30.7038 16.3315L30.8438 16.5536ZM30.4588 15.8617C30.2488 16.0326 29.1813 16.3999 27.3088 16.6903C25.6919 16.9187 24.0601 17.0329 22.4263 17.0319C20.5013 17.0319 18.9176 16.8953 17.7188 16.7244C15.8113 16.4853 14.7963 16.0411 14.4288 15.9215L14.5426 15.7336C14.8313 15.8788 15.8026 16.2632 17.7363 16.528C19.2908 16.7312 20.858 16.8283 22.4263 16.8184C24.0485 16.8189 25.6686 16.7047 27.2738 16.4767C29.1551 16.2205 30.1701 15.7592 30.3276 15.6396L30.4588 15.8617Z" stroke="black" stroke-width="0.075" stroke-linecap="round" stroke-linejoin="round"/>
<path fill-rule="evenodd" clip-rule="evenodd" d="M31.7446 20.8845V21.098C31.4996 21.3884 29.9771 21.8155 28.0696 22.123C26.1745 22.3889 24.2616 22.5146 22.3471 22.4988C20.5318 22.5139 18.7179 22.3911 16.9221 22.1315C15.5821 21.9804 14.2727 21.6349 13.0371 21.1065V20.8588C13.8859 21.4055 16.1784 21.8155 16.9484 21.9351C18.3309 22.1401 20.1071 22.2938 22.3471 22.2938C24.7009 22.2938 26.5821 22.1315 28.0346 21.918C29.4084 21.7215 31.3596 21.2176 31.7446 20.8845ZM31.7446 20.1157V20.3293C31.4996 20.6111 29.9771 21.0382 28.0696 21.3457C26.1748 21.6145 24.2618 21.743 22.3471 21.7301C20.5319 21.7405 18.7185 21.6177 16.9221 21.3628C15.5821 21.2116 14.2727 20.8662 13.0371 20.3378V20.0815C13.8859 20.6368 16.1871 21.0382 16.9484 21.1578C18.7358 21.4134 20.5406 21.5362 22.3471 21.5251C24.7009 21.5251 26.5909 21.3543 28.0346 21.1407C29.4084 20.9528 31.3596 20.4488 31.7446 20.1157ZM22.3821 25.9924C18.3921 25.9753 14.9709 24.9332 14.2446 24.7624L14.7696 25.5653C17.2239 26.4138 19.8138 26.8275 22.4171 26.7868C25.4534 26.7013 28.1046 26.4707 29.9684 25.5824L30.5109 24.7453C29.2421 25.3347 24.9109 25.9924 22.3734 25.9924" fill="#FFFF00"/>
<path d="M22.3821 25.9924C18.3921 25.9753 14.9709 24.9332 14.2446 24.7624L14.7696 25.5653C17.2239 26.4138 19.8138 26.8275 22.4171 26.7868C25.4534 26.7013 28.1046 26.4707 29.9684 25.5824L30.5109 24.7453C29.2421 25.3347 24.9109 25.9924 22.3734 25.9924M31.7446 20.8845V21.098C31.4996 21.3884 29.9771 21.8155 28.0696 22.123C26.1745 22.3889 24.2616 22.5146 22.3471 22.4988C20.5318 22.5139 18.7179 22.3911 16.9221 22.1315C15.5821 21.9804 14.2727 21.6349 13.0371 21.1065V20.8588C13.8859 21.4055 16.1784 21.8155 16.9484 21.9351C18.3309 22.1401 20.1071 22.2938 22.3471 22.2938C24.7009 22.2938 26.5821 22.1315 28.0346 21.918C29.4084 21.7215 31.3596 21.2176 31.7446 20.8845ZM31.7446 20.1157V20.3293C31.4996 20.6111 29.9771 21.0382 28.0696 21.3457C26.1748 21.6145 24.2618 21.743 22.3471 21.7301C20.5319 21.7405 18.7185 21.6177 16.9221 21.3628C15.5821 21.2116 14.2727 20.8662 13.0371 20.3378V20.0815C13.8859 20.6368 16.1871 21.0382 16.9484 21.1578C18.7358 21.4134 20.5406 21.5362 22.3471 21.5251C24.7009 21.5251 26.5909 21.3543 28.0346 21.1407C29.4084 20.9528 31.3596 20.4488 31.7446 20.1157Z" stroke="black" stroke-width="0.075" stroke-linecap="round" stroke-linejoin="round"/>
<path fill-rule="evenodd" clip-rule="evenodd" d="M30.1782 25.3945C30.0985 25.5097 30.0168 25.6236 29.9332 25.7362C29.0582 26.0437 27.6582 26.3682 27.0807 26.4537C25.531 26.7355 23.9582 26.8785 22.3819 26.8807C18.8469 26.8295 15.9507 26.1547 14.5944 25.5739L14.4807 25.3945L14.4982 25.3603L14.6819 25.4372C17.1722 26.2416 19.7764 26.6596 22.3994 26.6757C24.0444 26.6757 25.6807 26.4964 27.0019 26.2657C29.0319 25.8643 29.8544 25.5653 30.1082 25.4287L30.1694 25.3945H30.1782ZM30.6419 24.6428C30.5843 24.7429 30.526 24.8425 30.4669 24.9418C29.9944 25.1126 28.7169 25.4714 26.8532 25.7276C25.6282 25.8899 24.8669 26.0522 22.4257 26.0949C19.635 26.0676 16.8614 25.6652 14.1832 24.8991L14.0869 24.6855C16.808 25.4197 19.612 25.8214 22.4344 25.8814C24.6657 25.8387 25.6194 25.6764 26.8357 25.5141C29.0057 25.1895 30.0994 24.8307 30.4232 24.7368C30.4234 24.7311 30.4234 24.7254 30.4232 24.7197L30.6507 24.6343L30.6419 24.6428Z" fill="#FFFF00" stroke="black" stroke-width="0.075" stroke-linecap="round" stroke-linejoin="round"/>
<path fill-rule="evenodd" clip-rule="evenodd" d="M30.6941 20.295C30.7029 22.8575 29.3554 25.1637 28.2791 26.1717C26.6895 27.6851 24.5668 28.547 22.3466 28.5804C19.6954 28.6231 17.2016 26.9404 16.5279 26.1973C15.0206 24.6369 14.1628 22.5845 14.1216 20.4402C14.2791 17.6385 15.4079 15.691 17.0354 14.35C18.6164 13.0795 20.6052 12.393 22.6529 12.411C23.8482 12.4676 25.0183 12.7673 26.0881 13.291C27.1579 13.8146 28.1039 14.5506 28.8654 15.4519C29.9591 16.7502 30.4404 18.1596 30.6941 20.295ZM22.3641 11.5313C24.8119 11.5312 27.1605 12.4757 28.8979 14.1589C30.6353 15.8422 31.6206 18.1276 31.6391 20.5171C31.6391 21.7027 31.3999 22.8768 30.9351 23.9722C30.4703 25.0675 29.789 26.0628 28.9302 26.9012C28.0714 27.7396 27.0518 28.4046 25.9297 28.8584C24.8076 29.3121 23.6049 29.5456 22.3904 29.5456C21.1758 29.5456 19.9731 29.3121 18.851 28.8584C17.7289 28.4046 16.7093 27.7396 15.8505 26.9012C14.9917 26.0628 14.3104 25.0675 13.8456 23.9722C13.3808 22.8768 13.1416 21.7027 13.1416 20.5171C13.1329 15.5629 17.2804 11.5313 22.3641 11.5313Z" fill="#FFFF00" stroke="black" stroke-width="0.075" stroke-linecap="round" stroke-linejoin="round"/>
<path fill-rule="evenodd" clip-rule="evenodd" d="M22.3904 11.4883C27.4829 11.4883 31.6304 15.537 31.6304 20.5083C31.6304 25.4795 27.4829 29.5283 22.3992 29.5283C17.3154 29.5283 13.1592 25.4795 13.1592 20.5083C13.1592 15.537 17.3067 11.4883 22.3992 11.4883H22.3904ZM13.3517 20.4997C13.3517 25.3514 17.4379 29.3233 22.3904 29.3233C27.3429 29.3233 31.4292 25.3514 31.4292 20.4997C31.4292 15.6481 27.3429 11.6762 22.3904 11.6762C17.4379 11.6762 13.3517 15.6481 13.3517 20.4997Z" fill="#FFFF00" stroke="black" stroke-width="0.075" stroke-linecap="round" stroke-linejoin="round"/>
<path fill-rule="evenodd" clip-rule="evenodd" d="M22.3997 12.2402C24.6417 12.247 26.7898 13.1194 28.3751 14.6669C29.9604 16.2145 30.8541 18.3115 30.861 20.5C30.8541 22.6894 29.9607 24.7872 28.3756 26.3362C26.7906 27.8851 24.6425 28.7593 22.3997 28.7684C17.7622 28.7684 13.9385 25.0442 13.9385 20.5C13.9477 18.3122 14.8421 16.2165 16.4269 14.6694C18.0117 13.1223 20.1585 12.2492 22.3997 12.2402ZM14.1397 20.5C14.1397 24.9417 17.8672 28.5634 22.3997 28.5634C26.9322 28.5634 30.6597 24.9332 30.6597 20.5C30.6597 16.0584 26.9322 12.4367 22.3997 12.4367C20.2119 12.4457 18.1163 13.2981 16.5692 14.8083C15.0221 16.3185 14.1489 18.3643 14.1397 20.5Z" fill="#FFFF00" stroke="black" stroke-width="0.075" stroke-linecap="round" stroke-linejoin="round"/>
<path fill-rule="evenodd" clip-rule="evenodd" d="M22.7757 11.4463H21.9795V29.5802H22.767L22.7757 11.4463Z" fill="#FFFF00" stroke="black" stroke-width="0.075" stroke-linecap="round" stroke-linejoin="round"/>
<path fill-rule="evenodd" clip-rule="evenodd" d="M22.6879 11.3433H22.8891V29.6822H22.6966V11.3433H22.6879ZM21.9004 11.3433H22.1104V29.6822H21.9091L21.9004 11.3433Z" fill="#FFFF00" stroke="black" stroke-width="0.075" stroke-linecap="round" stroke-linejoin="round"/>
<path fill-rule="evenodd" clip-rule="evenodd" d="M31.64 20.8587V20.1924L31.08 19.6799L27.9037 18.8599L23.3362 18.4072L17.8237 18.6806L13.9037 19.586L13.1162 20.1583V20.8331L15.12 19.9533L19.88 19.2272H24.4562L27.8162 19.586L30.1437 20.1326L31.64 20.8587Z" fill="#FFFF00" stroke="black" stroke-width="0.075" stroke-linecap="round" stroke-linejoin="round"/>
<path fill-rule="evenodd" clip-rule="evenodd" d="M22.3996 19.1161C24.5784 19.1161 26.6871 19.3125 28.3759 19.6286C30.1084 19.9702 31.3246 20.3973 31.7446 20.8671V21.1063C31.2371 20.5084 29.6009 20.0813 28.3321 19.825C26.6696 19.5175 24.5696 19.3125 22.3909 19.3125C20.1071 19.3125 17.9721 19.5346 16.3271 19.8421C15.0146 20.0984 13.2559 20.6109 13.0371 21.1063V20.8586C13.1509 20.5169 14.4634 20.0044 16.3009 19.6371C17.9546 19.3211 20.0896 19.1161 22.3909 19.1161H22.3996ZM22.3996 18.3388C24.4034 18.3349 26.4035 18.5064 28.3759 18.8513C30.1084 19.1929 31.3246 19.62 31.7446 20.0984V20.329C31.2371 19.7396 29.6009 19.304 28.3321 19.0563C26.6696 18.7402 24.5696 18.5438 22.3909 18.5438C20.3601 18.5375 18.3331 18.7148 16.3359 19.0734C15.0671 19.304 13.2384 19.8336 13.0371 20.329V20.0898C13.1596 19.7482 14.4896 19.21 16.3009 18.8684C17.9634 18.5523 20.0896 18.3388 22.3996 18.3388ZM22.3471 14.3925C25.7859 14.3754 28.7871 14.8623 30.1609 15.5457L30.6596 16.3998C29.4696 15.7677 26.2321 15.1186 22.3559 15.204C19.1971 15.2296 15.8196 15.5457 14.1309 16.434L14.7259 15.4602C16.1171 14.7513 19.3896 14.3925 22.3471 14.3925Z" fill="#FFFF00" stroke="black" stroke-width="0.075" stroke-linecap="round" stroke-linejoin="round"/>
<path fill-rule="evenodd" clip-rule="evenodd" d="M22.3993 15.0931C24.1948 15.0635 25.9895 15.1864 27.7631 15.4604C29.1631 15.7166 30.5018 16.0924 30.6943 16.2974L30.8431 16.5537C30.3793 16.2633 29.2156 15.9301 27.7281 15.6568C26.2406 15.3835 24.3418 15.2895 22.3906 15.2981C20.1768 15.2895 18.4531 15.4006 16.9831 15.6568C15.9697 15.7955 14.9859 16.0925 14.0693 16.5366L14.2181 16.2718C14.7431 16.0156 15.5568 15.6995 16.9393 15.4518C18.4706 15.1785 20.2118 15.1016 22.3993 15.0931ZM22.3993 14.3243C24.2718 14.3072 26.1268 14.4097 27.5706 14.666C28.506 14.8016 29.4112 15.0903 30.2481 15.5201L30.4668 15.8618C30.0993 15.4604 28.7168 15.076 27.4831 14.871C26.0481 14.6233 24.2718 14.5293 22.3993 14.5122C20.6563 14.4971 18.9149 14.6228 17.1931 14.8881C16.2928 15.0105 15.4184 15.2729 14.6031 15.6654L14.7956 15.3835C15.3031 15.1272 16.1256 14.8881 17.1581 14.6916C18.8913 14.4228 20.6445 14.2971 22.3993 14.3158V14.3243ZM26.9843 24.2583C25.4677 24.0019 23.9295 23.8875 22.3906 23.9166C16.6593 23.9849 14.8131 25.0697 14.5856 25.3943L14.1481 24.711C15.6181 23.686 18.7331 23.1051 22.4256 23.1564C24.3418 23.1906 25.9956 23.3187 27.3781 23.5835L26.9843 24.2668" fill="#FFFF00"/>
<path d="M26.9843 24.2583C25.4677 24.0019 23.9295 23.8875 22.3906 23.9166C16.6593 23.9849 14.8131 25.0697 14.5856 25.3943L14.1481 24.711C15.6181 23.686 18.7331 23.1051 22.4256 23.1564C24.3418 23.1906 25.9956 23.3187 27.3781 23.5835L26.9843 24.2668M22.3993 15.0931C24.1948 15.0635 25.9895 15.1864 27.7631 15.4604C29.1631 15.7166 30.5018 16.0924 30.6943 16.2974L30.8431 16.5537C30.3793 16.2633 29.2156 15.9301 27.7281 15.6568C26.2406 15.3835 24.3418 15.2895 22.3906 15.2981C20.1768 15.2895 18.4531 15.4006 16.9831 15.6568C15.9697 15.7955 14.9859 16.0925 14.0693 16.5366L14.2181 16.2718C14.7431 16.0156 15.5568 15.6995 16.9393 15.4518C18.4706 15.1785 20.2118 15.1016 22.3993 15.0931ZM22.3993 14.3243C24.2718 14.3072 26.1268 14.4097 27.5706 14.666C28.506 14.8016 29.4112 15.0903 30.2481 15.5201L30.4668 15.8618C30.0993 15.4604 28.7168 15.076 27.4831 14.871C26.0481 14.6233 24.2718 14.5293 22.3993 14.5122C20.6563 14.4971 18.9149 14.6228 17.1931 14.8881C16.2928 15.0105 15.4184 15.2729 14.6031 15.6654L14.7956 15.3835C15.3031 15.1272 16.1256 14.8881 17.1581 14.6916C18.8913 14.4228 20.6445 14.2971 22.3993 14.3158V14.3243Z" stroke="black" stroke-width="0.075" stroke-linecap="round" stroke-linejoin="round"/>
<path fill-rule="evenodd" clip-rule="evenodd" d="M22.3644 23.8225C23.9569 23.8481 25.5144 23.9079 27.0281 24.1812L26.9231 24.3691C25.5231 24.1129 24.0181 24.0275 22.3731 24.0275C20.2469 24.0104 18.1119 24.2068 16.2481 24.7279C15.6619 24.8902 14.6906 25.2575 14.5856 25.565L14.4806 25.3941C14.5156 25.2062 15.0931 24.8304 16.1956 24.54C18.3306 23.9421 20.3256 23.831 22.3644 23.8225ZM22.4344 23.0366C24.1152 23.035 25.793 23.1779 27.4481 23.4637L27.3344 23.6602C25.7181 23.3708 24.0775 23.2306 22.4344 23.2416C20.3169 23.2416 18.0681 23.3954 16.0206 23.9762C15.3644 24.1641 14.2181 24.5741 14.1831 24.8902L14.0781 24.7023C14.0956 24.4118 15.0844 24.0275 15.9769 23.7798C18.0331 23.1904 20.2906 23.0452 22.4344 23.0366Z" fill="#FFFF00" stroke="black" stroke-width="0.075" stroke-linecap="round" stroke-linejoin="round"/>
<path fill-rule="evenodd" clip-rule="evenodd" d="M30.5705 24.8133L29.888 25.8639L27.9017 24.1471L22.7742 20.7731L16.9817 17.6725L13.9805 16.6731L14.6192 15.5114L14.838 15.4004L16.7017 15.8531L22.8617 18.9537L26.4142 21.1404L29.398 23.2331L30.6142 24.5998L30.5705 24.8133Z" fill="#FFFF00" stroke="black" stroke-width="0.075" stroke-linecap="round" stroke-linejoin="round"/>
<path fill-rule="evenodd" clip-rule="evenodd" d="M13.8755 16.6987C14.4005 16.357 18.268 18.0312 22.328 20.4228C26.3617 22.8145 30.2292 25.5137 29.8792 26.0176L29.7655 26.197L29.713 26.2397C29.7217 26.2312 29.783 26.1543 29.713 25.9749C29.538 25.4197 26.7905 23.2843 22.2492 20.6022C17.813 18.0312 14.1205 16.4766 13.7617 16.9207L13.8755 16.6987ZM30.7105 24.8047C31.043 24.1555 27.4555 21.5162 23.0017 18.9451C18.4517 16.4253 15.1617 14.9391 14.558 15.3832L14.4355 15.631C14.4355 15.6395 14.4355 15.6139 14.4705 15.5882C14.5755 15.5028 14.7592 15.5028 14.838 15.5028C15.8705 15.5199 18.8192 16.8439 22.958 19.1587C24.778 20.1837 30.623 23.8566 30.5967 24.8816C30.5967 24.967 30.6055 24.9841 30.5705 25.0353L30.7192 24.8132L30.7105 24.8047Z" fill="#FFFF00" stroke="black" stroke-width="0.075" stroke-linecap="round" stroke-linejoin="round"/>
<path d="M16.8564 21.5049C16.8578 22.2122 17.0029 22.9121 17.2833 23.5643C17.5636 24.2165 17.9737 24.8079 18.4898 25.3043C18.9996 25.8096 19.6067 26.2114 20.2763 26.4866C20.9459 26.7618 21.6646 26.905 22.3911 26.9078C23.8615 26.9077 25.2715 26.3375 26.3111 25.3225C26.8254 24.8233 27.2336 24.2299 27.5123 23.5764C27.791 22.9228 27.9347 22.222 27.9351 21.514V14.298L16.8564 14.2798V21.5049Z" fill="white" stroke="black" stroke-width="0.0933336"/>
<path d="M17.0801 21.5144C17.082 22.1929 17.2216 22.8642 17.4907 23.4897C17.7599 24.1153 18.1532 24.6826 18.6481 25.1589C19.6418 26.134 20.9911 26.6845 22.4001 26.6896C23.8066 26.6903 25.1559 26.1464 26.1521 25.1771C26.6453 24.7 27.0369 24.1324 27.3044 23.5069C27.5719 22.8814 27.71 22.2105 27.7108 21.5327V14.5171H17.0801V21.5144ZM25.5734 16.6218V21.0771L25.5641 21.5418C25.5672 21.9488 25.4862 22.3523 25.3258 22.728C25.1655 23.1037 24.929 23.444 24.6308 23.7285C24.0372 24.3099 23.2316 24.6376 22.3908 24.6396C21.5134 24.6396 20.7388 24.2751 20.1601 23.7102C19.5645 23.1308 19.2288 22.3444 19.2268 21.5236V16.6035L25.5734 16.6218Z" fill="#FF0000" stroke="black" stroke-width="0.0666669"/>
<path d="M17.751 16.3481C17.7603 15.847 18.1243 15.7285 18.1243 15.7285C18.1336 15.7285 18.5256 15.8561 18.5256 16.3572L17.751 16.3481Z" fill="#FFFF00"/>
<path d="M17.4345 15.7376L17.3692 16.3116H17.7612C17.7612 15.8378 18.1345 15.765 18.1345 15.765C18.1438 15.765 18.5078 15.8652 18.5172 16.3116H18.9092L18.8345 15.7285L17.4345 15.7376ZM17.3412 16.3207H18.9278C18.9558 16.3207 18.9838 16.3481 18.9838 16.3845C18.9838 16.4301 18.9558 16.4574 18.9278 16.4574H17.3412C17.3132 16.4574 17.2852 16.4301 17.2852 16.3845C17.2852 16.3481 17.3132 16.3207 17.3505 16.3207H17.3412Z" fill="#FFFF00" stroke="black" stroke-width="0.0666669"/>
<path d="M17.9196 16.3115C17.9196 16.0109 18.1343 15.9289 18.1343 15.9289C18.1343 15.9289 18.3489 16.02 18.3489 16.3115H17.9196ZM17.3783 15.4915H18.8996C18.9276 15.4915 18.9556 15.528 18.9556 15.5644C18.9556 15.5918 18.9276 15.6191 18.8996 15.6191H17.3783C17.3503 15.6191 17.3223 15.5918 17.3223 15.5553C17.3223 15.528 17.3503 15.5007 17.3783 15.5007V15.4915ZM17.4156 15.6282H18.8529C18.8809 15.6282 18.9089 15.6555 18.9089 15.692C18.9089 15.7284 18.8809 15.7558 18.8529 15.7558H17.4063C17.3689 15.7558 17.3503 15.7284 17.3503 15.692C17.3503 15.6555 17.3689 15.6282 17.4063 15.6282H17.4156ZM17.8823 14.6624H17.9943V14.7353H18.0783V14.6624H18.1996V14.7444H18.2836V14.6533H18.3956V14.8355C18.3956 14.872 18.3769 14.8902 18.3489 14.8902H17.9383C17.9103 14.8902 17.8823 14.872 17.8823 14.8447V14.6624ZM18.3116 14.9084L18.3396 15.4915H17.9383L17.9663 14.8993H18.3116" fill="#FFFF00"/>
<path d="M18.3116 14.9084L18.3396 15.4915H17.9383L17.9663 14.8993H18.3116M17.9196 16.3115C17.9196 16.0109 18.1343 15.9289 18.1343 15.9289C18.1343 15.9289 18.3489 16.02 18.3489 16.3115H17.9196ZM17.3783 15.4915H18.8996C18.9276 15.4915 18.9556 15.528 18.9556 15.5644C18.9556 15.5918 18.9276 15.6191 18.8996 15.6191H17.3783C17.3503 15.6191 17.3223 15.5918 17.3223 15.5553C17.3223 15.528 17.3503 15.5007 17.3783 15.5007V15.4915ZM17.4156 15.6282H18.8529C18.8809 15.6282 18.9089 15.6555 18.9089 15.692C18.9089 15.7284 18.8809 15.7558 18.8529 15.7558H17.4063C17.3689 15.7558 17.3503 15.7284 17.3503 15.692C17.3503 15.6555 17.3689 15.6282 17.4063 15.6282H17.4156ZM17.8823 14.6624H17.9943V14.7353H18.0783V14.6624H18.1996V14.7444H18.2836V14.6533H18.3956V14.8355C18.3956 14.872 18.3769 14.8902 18.3489 14.8902H17.9383C17.9103 14.8902 17.8823 14.872 17.8823 14.8447V14.6624Z" stroke="black" stroke-width="0.0666669"/>
<path d="M17.8265 15.1816V15.4914H17.4531V15.1816H17.8265Z" fill="#FFFF00" stroke="black" stroke-width="0.0666669"/>
<path d="M18.8157 15.1816V15.4914H18.4424V15.1816H18.8157Z" fill="#FFFF00" stroke="black" stroke-width="0.0666669"/>
<path d="M17.3877 14.9448H17.4997V15.0359H17.5837V14.9448H17.6957V15.0359H17.7797V14.9448H17.8917V15.127C17.8917 15.1635 17.873 15.1817 17.845 15.1817H17.4437C17.4288 15.1817 17.4146 15.176 17.4041 15.1657C17.3936 15.1555 17.3877 15.1415 17.3877 15.127V14.9448Z" fill="#FFFF00" stroke="black" stroke-width="0.0666669"/>
<path d="M18.377 14.9448H18.489V15.0359H18.573V14.9448H18.685V15.0359H18.769V14.9448H18.881V15.127C18.881 15.1635 18.8623 15.1817 18.8343 15.1817H18.433C18.4181 15.1817 18.4039 15.176 18.3934 15.1657C18.3829 15.1555 18.377 15.1415 18.377 15.127V14.9448Z" fill="#FFFF00" stroke="black" stroke-width="0.0666669"/>
<path d="M18.0967 15.0908C18.0967 15.0361 18.1807 15.0361 18.1807 15.0908V15.2366H18.0967V15.0908Z" fill="#000001"/>
<path d="M17.6025 15.291C17.6025 15.2363 17.6772 15.2363 17.6772 15.291V15.4003H17.6025V15.291Z" fill="#000001"/>
<path d="M18.5908 15.291C18.5908 15.2363 18.6655 15.2363 18.6655 15.291V15.4003H18.5908V15.291Z" fill="#000001"/>
<path d="M17.751 20.5663C17.7603 20.0652 18.1243 19.9468 18.1243 19.9468C18.1336 19.9468 18.5256 20.0743 18.5256 20.5754L17.751 20.5663Z" fill="#FFFF00"/>
<path d="M17.4345 19.9559L17.3692 20.5299H17.7612C17.7612 20.0561 18.1345 19.9832 18.1345 19.9832C18.1438 19.9832 18.5078 20.0834 18.5172 20.5299H18.9092L18.8345 19.9468L17.4345 19.9559ZM17.3412 20.539H18.9278C18.9558 20.539 18.9838 20.5663 18.9838 20.6028C18.9838 20.6483 18.9558 20.6757 18.9278 20.6757H17.3412C17.3132 20.6757 17.2852 20.6483 17.2852 20.6028C17.2852 20.5663 17.3132 20.539 17.3505 20.539H17.3412Z" fill="#FFFF00" stroke="black" stroke-width="0.0666669"/>
<path d="M17.9196 20.5298C17.9196 20.2291 18.1343 20.1471 18.1343 20.1471C18.1343 20.1471 18.3489 20.2383 18.3489 20.5298H17.9196ZM17.3783 19.7098H18.8996C18.9276 19.7098 18.9556 19.7463 18.9556 19.7827C18.9556 19.81 18.9276 19.8374 18.8996 19.8374H17.3783C17.3503 19.8374 17.3223 19.81 17.3223 19.7736C17.3223 19.7463 17.3503 19.7189 17.3783 19.7189V19.7098ZM17.4156 19.8465H18.8529C18.8809 19.8465 18.9089 19.8738 18.9089 19.9103C18.9089 19.9467 18.8809 19.974 18.8529 19.974H17.4063C17.3689 19.974 17.3503 19.9467 17.3503 19.9103C17.3503 19.8738 17.3689 19.8465 17.4063 19.8465H17.4156ZM17.8823 18.8807H17.9943V18.9536H18.0783V18.8807H18.1996V18.9627H18.2836V18.8716H18.3956V19.0538C18.3956 19.0902 18.3769 19.1085 18.3489 19.1085H17.9383C17.9103 19.1085 17.8823 19.0902 17.8823 19.0629V18.8807ZM18.3116 19.1267L18.3396 19.7098H17.9383L17.9663 19.1176H18.3116" fill="#FFFF00"/>
<path d="M18.3116 19.1267L18.3396 19.7098H17.9383L17.9663 19.1176H18.3116M17.9196 20.5298C17.9196 20.2291 18.1343 20.1471 18.1343 20.1471C18.1343 20.1471 18.3489 20.2383 18.3489 20.5298H17.9196ZM17.3783 19.7098H18.8996C18.9276 19.7098 18.9556 19.7463 18.9556 19.7827C18.9556 19.81 18.9276 19.8374 18.8996 19.8374H17.3783C17.3503 19.8374 17.3223 19.81 17.3223 19.7736C17.3223 19.7463 17.3503 19.7189 17.3783 19.7189V19.7098ZM17.4156 19.8465H18.8529C18.8809 19.8465 18.9089 19.8738 18.9089 19.9103C18.9089 19.9467 18.8809 19.974 18.8529 19.974H17.4063C17.3689 19.974 17.3503 19.9467 17.3503 19.9103C17.3503 19.8738 17.3689 19.8465 17.4063 19.8465H17.4156ZM17.8823 18.8807H17.9943V18.9536H18.0783V18.8807H18.1996V18.9627H18.2836V18.8716H18.3956V19.0538C18.3956 19.0902 18.3769 19.1085 18.3489 19.1085H17.9383C17.9103 19.1085 17.8823 19.0902 17.8823 19.0629V18.8807Z" stroke="black" stroke-width="0.0666669"/>
<path d="M17.8265 19.3999V19.7097H17.4531V19.3999H17.8265Z" fill="#FFFF00" stroke="black" stroke-width="0.0666669"/>
<path d="M18.8157 19.3999V19.7097H18.4424V19.3999H18.8157Z" fill="#FFFF00" stroke="black" stroke-width="0.0666669"/>
<path d="M17.3877 19.1631H17.4997V19.2542H17.5837V19.1631H17.6957V19.2542H17.7797V19.1631H17.8917V19.3453C17.8917 19.3818 17.873 19.4 17.845 19.4H17.4437C17.4288 19.4 17.4146 19.3942 17.4041 19.384C17.3936 19.3737 17.3877 19.3598 17.3877 19.3453V19.1631Z" fill="#FFFF00" stroke="black" stroke-width="0.0666669"/>
<path d="M18.377 19.1631H18.489V19.2542H18.573V19.1631H18.685V19.2542H18.769V19.1631H18.881V19.3453C18.881 19.3818 18.8623 19.4 18.8343 19.4H18.433C18.4181 19.4 18.4039 19.3942 18.3934 19.384C18.3829 19.3737 18.377 19.3598 18.377 19.3453V19.1631Z" fill="#FFFF00" stroke="black" stroke-width="0.0666669"/>
<path d="M18.0967 19.3091C18.0967 19.2544 18.1807 19.2544 18.1807 19.3091V19.4548H18.0967V19.3091Z" fill="#000001"/>
<path d="M17.6025 19.5093C17.6025 19.4546 17.6772 19.4546 17.6772 19.5093V19.6186H17.6025V19.5093Z" fill="#000001"/>
<path d="M18.5908 19.5093C18.5908 19.4546 18.6655 19.4546 18.6655 19.5093V19.6186H18.5908V19.5093Z" fill="#000001"/>
<path d="M19.4376 24.9629C19.08 24.6034 19.2504 24.2677 19.2504 24.2677C19.257 24.2613 19.6259 24.0796 19.9901 24.4327L19.4376 24.9629Z" fill="#FFFF00"/>
<path d="M18.7691 24.7536L19.1402 25.2032L19.4165 24.9317C19.0721 24.5979 19.2822 24.2879 19.2822 24.2879C19.2888 24.2815 19.6181 24.0999 19.9492 24.408L20.2254 24.1365L19.749 23.7773L18.7691 24.7536ZM19.1271 25.229L20.2452 24.1299C20.2649 24.1105 20.3045 24.1104 20.331 24.1361C20.3641 24.1682 20.3643 24.2068 20.3445 24.2262L19.2264 25.3253C19.2067 25.3447 19.1671 25.3449 19.134 25.3128C19.1075 25.2871 19.1074 25.2484 19.1337 25.2226L19.1271 25.229Z" fill="#FFFF00" stroke="black" stroke-width="0.0666669"/>
<path d="M19.5285 24.8214C19.31 24.6096 19.4017 24.4031 19.4017 24.4031C19.4017 24.4031 19.6192 24.3186 19.8311 24.524L19.5285 24.8214ZM18.551 24.6187L19.6231 23.5648C19.6429 23.5454 19.6891 23.5517 19.7156 23.5774C19.7354 23.5966 19.7356 23.6353 19.7158 23.6547L18.6438 24.7086C18.624 24.728 18.5844 24.7281 18.5579 24.7024C18.5381 24.6832 18.5379 24.6445 18.5577 24.6251L18.551 24.6187ZM18.6767 24.6891L19.6896 23.6934C19.7093 23.674 19.7489 23.6739 19.7754 23.6996C19.8019 23.7253 19.802 23.7639 19.7823 23.7833L18.7628 24.7855C18.7365 24.8113 18.7035 24.805 18.677 24.7793C18.6505 24.7536 18.6438 24.7215 18.6701 24.6956L18.6767 24.6891ZM18.3036 23.6854L18.3825 23.6078L18.4355 23.6592L18.4947 23.601L18.4417 23.5496L18.5272 23.4656L18.5868 23.5233L18.646 23.4651L18.5798 23.4009L18.6587 23.3234L18.7912 23.4517C18.8176 23.4774 18.8177 23.5032 18.798 23.5226L18.5086 23.8071C18.4889 23.8265 18.4559 23.833 18.436 23.8138L18.3036 23.6854ZM18.7849 23.5613L19.2285 23.9527L18.9457 24.2308L18.535 23.7941L18.7783 23.5549" fill="#FFFF00"/>
<path d="M18.7849 23.5613L19.2285 23.9527L18.9457 24.2308L18.535 23.7941L18.7783 23.5549M19.5285 24.8214C19.31 24.6096 19.4017 24.4031 19.4017 24.4031C19.4017 24.4031 19.6192 24.3186 19.8311 24.524L19.5285 24.8214ZM18.551 24.6187L19.6231 23.5648C19.6429 23.5454 19.6891 23.5517 19.7156 23.5774C19.7354 23.5966 19.7356 23.6353 19.7158 23.6547L18.6438 24.7086C18.624 24.728 18.5844 24.7281 18.5579 24.7024C18.5381 24.6832 18.5379 24.6445 18.5577 24.6251L18.551 24.6187ZM18.6767 24.6891L19.6896 23.6934C19.7093 23.674 19.7489 23.6739 19.7754 23.6996C19.8019 23.7253 19.802 23.7639 19.7823 23.7833L18.7628 24.7855C18.7365 24.8113 18.7035 24.805 18.677 24.7793C18.6505 24.7536 18.6438 24.7215 18.6701 24.6956L18.6767 24.6891ZM18.3036 23.6854L18.3825 23.6078L18.4355 23.6592L18.4947 23.601L18.4417 23.5496L18.5272 23.4656L18.5868 23.5233L18.646 23.4651L18.5798 23.4009L18.6587 23.3234L18.7912 23.4517C18.8176 23.4774 18.8177 23.5032 18.798 23.5226L18.5086 23.8071C18.4889 23.8265 18.4559 23.833 18.436 23.8138L18.3036 23.6854Z" stroke="black" stroke-width="0.0666669"/>
<path d="M18.642 24.0895L18.8671 24.3078L18.6041 24.5664L18.3789 24.3481L18.642 24.0895Z" fill="#FFFF00" stroke="black" stroke-width="0.0666669"/>
<path d="M19.3383 23.405L19.5634 23.6232L19.3003 23.8818L19.0752 23.6636L19.3383 23.405Z" fill="#FFFF00" stroke="black" stroke-width="0.0666669"/>
<path d="M18.1602 24.2271L18.2391 24.1495L18.3053 24.2137L18.3645 24.1555L18.2983 24.0913L18.3772 24.0137L18.4434 24.0779L18.5026 24.0197L18.4364 23.9555L18.5153 23.8779L18.6478 24.0063C18.6742 24.032 18.6743 24.0578 18.6546 24.0772L18.3718 24.3552C18.3613 24.3654 18.3471 24.3713 18.3322 24.3713C18.3174 24.3714 18.3031 24.3657 18.2926 24.3554L18.1602 24.2271Z" fill="#FFFF00" stroke="black" stroke-width="0.0666669"/>
<path d="M18.8584 23.5415L18.9373 23.4639L19.0035 23.5281L19.0627 23.4699L18.9965 23.4057L19.0754 23.3281L19.1417 23.3923L19.2009 23.3342L19.1346 23.27L19.2136 23.1924L19.346 23.3208C19.3725 23.3464 19.3726 23.3722 19.3528 23.3916L19.07 23.6696C19.0596 23.6799 19.0453 23.6857 19.0305 23.6858C19.0156 23.6858 19.0014 23.6801 18.9908 23.6699L18.8584 23.5415Z" fill="#FFFF00" stroke="black" stroke-width="0.0666669"/>
<path d="M18.7671 23.8385C18.7274 23.7999 18.7866 23.7417 18.8263 23.7803L18.9323 23.883L18.8731 23.9412L18.7671 23.8385Z" fill="#000001"/>
<path d="M18.564 24.3228C18.5242 24.2843 18.5769 24.2326 18.6166 24.2711L18.6961 24.3481L18.6434 24.3999L18.564 24.3228Z" fill="#000001"/>
<path d="M19.2603 23.6363C19.2205 23.5978 19.2732 23.5461 19.3129 23.5846L19.3924 23.6616L19.3397 23.7133L19.2603 23.6363Z" fill="#000001"/>
<path d="M22.0166 16.3481C22.0259 15.847 22.3899 15.7285 22.3899 15.7285C22.3993 15.7285 22.7913 15.8561 22.7913 16.3572L22.0166 16.3481Z" fill="#FFFF00"/>
<path d="M21.7001 15.7376L21.6348 16.3116H22.0268C22.0268 15.8378 22.4001 15.765 22.4001 15.765C22.4095 15.765 22.7735 15.8652 22.7828 16.3116H23.1748L23.1001 15.7285L21.7001 15.7376ZM21.6068 16.3207H23.1935C23.2215 16.3207 23.2495 16.3481 23.2495 16.3845C23.2495 16.4301 23.2215 16.4574 23.1935 16.4574H21.6068C21.5788 16.4574 21.5508 16.4301 21.5508 16.3845C21.5508 16.3481 21.5788 16.3207 21.6161 16.3207H21.6068Z" fill="#FFFF00" stroke="black" stroke-width="0.0666669"/>
<path d="M22.1852 16.3115C22.1852 16.0109 22.3999 15.9289 22.3999 15.9289C22.3999 15.9289 22.6146 16.02 22.6146 16.3115H22.1852ZM21.6439 15.4915H23.1652C23.1932 15.4915 23.2212 15.528 23.2212 15.5644C23.2212 15.5918 23.1932 15.6191 23.1652 15.6191H21.6439C21.6159 15.6191 21.5879 15.5918 21.5879 15.5553C21.5879 15.528 21.6159 15.5007 21.6439 15.5007V15.4915ZM21.6812 15.6282H23.1186C23.1466 15.6282 23.1746 15.6555 23.1746 15.692C23.1746 15.7284 23.1466 15.7558 23.1186 15.7558H21.6719C21.6346 15.7558 21.6159 15.7284 21.6159 15.692C21.6159 15.6555 21.6346 15.6282 21.6719 15.6282H21.6812ZM22.1479 14.6624H22.2599V14.7353H22.3439V14.6624H22.4652V14.7444H22.5492V14.6533H22.6612V14.8355C22.6612 14.872 22.6426 14.8902 22.6146 14.8902H22.2039C22.1759 14.8902 22.1479 14.872 22.1479 14.8447V14.6624ZM22.5772 14.9084L22.6052 15.4915H22.2039L22.2319 14.8993H22.5772" fill="#FFFF00"/>
<path d="M22.5772 14.9084L22.6052 15.4915H22.2039L22.2319 14.8993H22.5772M22.1852 16.3115C22.1852 16.0109 22.3999 15.9289 22.3999 15.9289C22.3999 15.9289 22.6146 16.02 22.6146 16.3115H22.1852ZM21.6439 15.4915H23.1652C23.1932 15.4915 23.2212 15.528 23.2212 15.5644C23.2212 15.5918 23.1932 15.6191 23.1652 15.6191H21.6439C21.6159 15.6191 21.5879 15.5918 21.5879 15.5553C21.5879 15.528 21.6159 15.5007 21.6439 15.5007V15.4915ZM21.6812 15.6282H23.1186C23.1466 15.6282 23.1746 15.6555 23.1746 15.692C23.1746 15.7284 23.1466 15.7558 23.1186 15.7558H21.6719C21.6346 15.7558 21.6159 15.7284 21.6159 15.692C21.6159 15.6555 21.6346 15.6282 21.6719 15.6282H21.6812ZM22.1479 14.6624H22.2599V14.7353H22.3439V14.6624H22.4652V14.7444H22.5492V14.6533H22.6612V14.8355C22.6612 14.872 22.6426 14.8902 22.6146 14.8902H22.2039C22.1759 14.8902 22.1479 14.872 22.1479 14.8447V14.6624Z" stroke="black" stroke-width="0.0666669"/>
<path d="M22.0921 15.1816V15.4914H21.7188V15.1816H22.0921Z" fill="#FFFF00" stroke="black" stroke-width="0.0666669"/>
<path d="M23.0813 15.1816V15.4914H22.708V15.1816H23.0813Z" fill="#FFFF00" stroke="black" stroke-width="0.0666669"/>
<path d="M21.6533 14.9448H21.7653V15.0359H21.8493V14.9448H21.9613V15.0359H22.0453V14.9448H22.1573V15.127C22.1573 15.1635 22.1387 15.1817 22.1107 15.1817H21.7093C21.6945 15.1817 21.6802 15.176 21.6697 15.1657C21.6592 15.1555 21.6533 15.1415 21.6533 15.127V14.9448Z" fill="#FFFF00" stroke="black" stroke-width="0.0666669"/>
<path d="M22.6426 14.9448H22.7546V15.0359H22.8386V14.9448H22.9506V15.0359H23.0346V14.9448H23.1466V15.127C23.1466 15.1635 23.1279 15.1817 23.0999 15.1817H22.6986C22.6837 15.1817 22.6695 15.176 22.659 15.1657C22.6485 15.1555 22.6426 15.1415 22.6426 15.127V14.9448Z" fill="#FFFF00" stroke="black" stroke-width="0.0666669"/>
<path d="M22.3623 15.0908C22.3623 15.0361 22.4463 15.0361 22.4463 15.0908V15.2366H22.3623V15.0908Z" fill="#000001"/>
<path d="M21.8682 15.291C21.8682 15.2363 21.9428 15.2363 21.9428 15.291V15.4003H21.8682V15.291Z" fill="#000001"/>
<path d="M22.8564 15.291C22.8564 15.2363 22.9311 15.2363 22.9311 15.291V15.4003H22.8564V15.291Z" fill="#000001"/>
<path d="M27.0303 16.3481C27.0209 15.847 26.6569 15.7285 26.6569 15.7285C26.6476 15.7285 26.2556 15.8561 26.2556 16.3572L27.0303 16.3481Z" fill="#FFFF00"/>
<path d="M27.3468 15.7376L27.4121 16.3116H27.0201C27.0201 15.8378 26.6468 15.765 26.6468 15.765C26.6374 15.765 26.2734 15.8652 26.2641 16.3116H25.8721L25.9468 15.7285L27.3468 15.7376ZM27.4401 16.3207H25.8534C25.8254 16.3207 25.7974 16.3481 25.7974 16.3845C25.7974 16.4301 25.8254 16.4574 25.8534 16.4574H27.4401C27.4681 16.4574 27.4961 16.4301 27.4961 16.3845C27.4961 16.3481 27.4681 16.3207 27.4308 16.3207H27.4401Z" fill="#FFFF00" stroke="black" stroke-width="0.0666669"/>
<path d="M26.8616 16.3115C26.8616 16.0109 26.647 15.9289 26.647 15.9289C26.647 15.9289 26.4323 16.02 26.4323 16.3115H26.8616ZM27.403 15.4915H25.8816C25.8536 15.4915 25.8256 15.528 25.8256 15.5644C25.8256 15.5918 25.8536 15.6191 25.8816 15.6191H27.403C27.431 15.6191 27.459 15.5918 27.459 15.5553C27.459 15.528 27.431 15.5007 27.403 15.5007V15.4915ZM27.3657 15.6282H25.9283C25.9003 15.6282 25.8723 15.6555 25.8723 15.692C25.8723 15.7284 25.9003 15.7558 25.9283 15.7558H27.375C27.4123 15.7558 27.431 15.7284 27.431 15.692C27.431 15.6555 27.4123 15.6282 27.375 15.6282H27.3657ZM26.899 14.6624H26.787V14.7353H26.703V14.6624H26.5816V14.7444H26.4976V14.6533H26.3856V14.8355C26.3856 14.872 26.4043 14.8902 26.4323 14.8902H26.843C26.871 14.8902 26.899 14.872 26.899 14.8447V14.6624ZM26.4696 14.9084L26.4416 15.4915H26.843L26.815 14.8993H26.4696" fill="#FFFF00"/>
<path d="M26.4696 14.9084L26.4416 15.4915H26.843L26.815 14.8993H26.4696M26.8616 16.3115C26.8616 16.0109 26.647 15.9289 26.647 15.9289C26.647 15.9289 26.4323 16.02 26.4323 16.3115H26.8616ZM27.403 15.4915H25.8816C25.8536 15.4915 25.8256 15.528 25.8256 15.5644C25.8256 15.5918 25.8536 15.6191 25.8816 15.6191H27.403C27.431 15.6191 27.459 15.5918 27.459 15.5553C27.459 15.528 27.431 15.5007 27.403 15.5007V15.4915ZM27.3657 15.6282H25.9283C25.9003 15.6282 25.8723 15.6555 25.8723 15.692C25.8723 15.7284 25.9003 15.7558 25.9283 15.7558H27.375C27.4123 15.7558 27.431 15.7284 27.431 15.692C27.431 15.6555 27.4123 15.6282 27.375 15.6282H27.3657ZM26.899 14.6624H26.787V14.7353H26.703V14.6624H26.5816V14.7444H26.4976V14.6533H26.3856V14.8355C26.3856 14.872 26.4043 14.8902 26.4323 14.8902H26.843C26.871 14.8902 26.899 14.872 26.899 14.8447V14.6624Z" stroke="black" stroke-width="0.0666669"/>
<path d="M26.9548 15.1816V15.4914H27.3281V15.1816H26.9548Z" fill="#FFFF00" stroke="black" stroke-width="0.0666669"/>
<path d="M25.9655 15.1816V15.4914H26.3389V15.1816H25.9655Z" fill="#FFFF00" stroke="black" stroke-width="0.0666669"/>
<path d="M27.3936 14.9448H27.2816V15.0359H27.1976V14.9448H27.0856V15.0359H27.0016V14.9448H26.8896V15.127C26.8896 15.1635 26.9082 15.1817 26.9362 15.1817H27.3376C27.3524 15.1817 27.3667 15.176 27.3772 15.1657C27.3877 15.1555 27.3936 15.1415 27.3936 15.127V14.9448Z" fill="#FFFF00" stroke="black" stroke-width="0.0666669"/>
<path d="M26.4043 14.9448H26.2923V15.0359H26.2083V14.9448H26.0963V15.0359H26.0123V14.9448H25.9003V15.127C25.9003 15.1635 25.919 15.1817 25.947 15.1817H26.3483C26.3631 15.1817 26.3774 15.176 26.3879 15.1657C26.3984 15.1555 26.4043 15.1415 26.4043 15.127V14.9448Z" fill="#FFFF00" stroke="black" stroke-width="0.0666669"/>
<path d="M26.6846 15.0908C26.6846 15.0361 26.6006 15.0361 26.6006 15.0908V15.2366H26.6846V15.0908Z" fill="#000001"/>
<path d="M27.1787 15.291C27.1787 15.2363 27.104 15.2363 27.104 15.291V15.4003H27.1787V15.291Z" fill="#000001"/>
<path d="M26.1904 15.291C26.1904 15.2363 26.1158 15.2363 26.1158 15.291V15.4003H26.1904V15.291Z" fill="#000001"/>
<path d="M27.0303 20.5663C27.0209 20.0652 26.6569 19.9468 26.6569 19.9468C26.6476 19.9468 26.2556 20.0743 26.2556 20.5754L27.0303 20.5663Z" fill="#FFFF00"/>
<path d="M27.3468 19.9559L27.4121 20.5299H27.0201C27.0201 20.0561 26.6468 19.9832 26.6468 19.9832C26.6374 19.9832 26.2734 20.0834 26.2641 20.5299H25.8721L25.9468 19.9468L27.3468 19.9559ZM27.4401 20.539H25.8534C25.8254 20.539 25.7974 20.5663 25.7974 20.6028C25.7974 20.6483 25.8254 20.6757 25.8534 20.6757H27.4401C27.4681 20.6757 27.4961 20.6483 27.4961 20.6028C27.4961 20.5663 27.4681 20.539 27.4308 20.539H27.4401Z" fill="#FFFF00" stroke="black" stroke-width="0.0666669"/>
<path d="M26.8616 20.5298C26.8616 20.2291 26.647 20.1471 26.647 20.1471C26.647 20.1471 26.4323 20.2383 26.4323 20.5298H26.8616ZM27.403 19.7098H25.8816C25.8536 19.7098 25.8256 19.7463 25.8256 19.7827C25.8256 19.81 25.8536 19.8374 25.8816 19.8374H27.403C27.431 19.8374 27.459 19.81 27.459 19.7736C27.459 19.7463 27.431 19.7189 27.403 19.7189V19.7098ZM27.3657 19.8465H25.9283C25.9003 19.8465 25.8723 19.8738 25.8723 19.9103C25.8723 19.9467 25.9003 19.974 25.9283 19.974H27.375C27.4123 19.974 27.431 19.9467 27.431 19.9103C27.431 19.8738 27.4123 19.8465 27.375 19.8465H27.3657ZM26.899 18.8807H26.787V18.9536H26.703V18.8807H26.5816V18.9627H26.4976V18.8716H26.3856V19.0538C26.3856 19.0902 26.4043 19.1085 26.4323 19.1085H26.843C26.871 19.1085 26.899 19.0902 26.899 19.0629V18.8807ZM26.4696 19.1267L26.4416 19.7098H26.843L26.815 19.1176H26.4696" fill="#FFFF00"/>
<path d="M26.4696 19.1267L26.4416 19.7098H26.843L26.815 19.1176H26.4696M26.8616 20.5298C26.8616 20.2291 26.647 20.1471 26.647 20.1471C26.647 20.1471 26.4323 20.2383 26.4323 20.5298H26.8616ZM27.403 19.7098H25.8816C25.8536 19.7098 25.8256 19.7463 25.8256 19.7827C25.8256 19.81 25.8536 19.8374 25.8816 19.8374H27.403C27.431 19.8374 27.459 19.81 27.459 19.7736C27.459 19.7463 27.431 19.7189 27.403 19.7189V19.7098ZM27.3657 19.8465H25.9283C25.9003 19.8465 25.8723 19.8738 25.8723 19.9103C25.8723 19.9467 25.9003 19.974 25.9283 19.974H27.375C27.4123 19.974 27.431 19.9467 27.431 19.9103C27.431 19.8738 27.4123 19.8465 27.375 19.8465H27.3657ZM26.899 18.8807H26.787V18.9536H26.703V18.8807H26.5816V18.9627H26.4976V18.8716H26.3856V19.0538C26.3856 19.0902 26.4043 19.1085 26.4323 19.1085H26.843C26.871 19.1085 26.899 19.0902 26.899 19.0629V18.8807Z" stroke="black" stroke-width="0.0666669"/>
<path d="M26.9548 19.3999V19.7097H27.3281V19.3999H26.9548Z" fill="#FFFF00" stroke="black" stroke-width="0.0666669"/>
<path d="M25.9655 19.3999V19.7097H26.3389V19.3999H25.9655Z" fill="#FFFF00" stroke="black" stroke-width="0.0666669"/>
<path d="M27.3936 19.1631H27.2816V19.2542H27.1976V19.1631H27.0856V19.2542H27.0016V19.1631H26.8896V19.3453C26.8896 19.3818 26.9082 19.4 26.9362 19.4H27.3376C27.3524 19.4 27.3667 19.3942 27.3772 19.384C27.3877 19.3737 27.3936 19.3598 27.3936 19.3453V19.1631Z" fill="#FFFF00" stroke="black" stroke-width="0.0666669"/>
<path d="M26.4043 19.1631H26.2923V19.2542H26.2083V19.1631H26.0963V19.2542H26.0123V19.1631H25.9003V19.3453C25.9003 19.3818 25.919 19.4 25.947 19.4H26.3483C26.3631 19.4 26.3774 19.3942 26.3879 19.384C26.3984 19.3737 26.4043 19.3598 26.4043 19.3453V19.1631Z" fill="#FFFF00" stroke="black" stroke-width="0.0666669"/>
<path d="M26.6846 19.3091C26.6846 19.2544 26.6006 19.2544 26.6006 19.3091V19.4548H26.6846V19.3091Z" fill="#000001"/>
<path d="M27.1787 19.5093C27.1787 19.4546 27.104 19.4546 27.104 19.5093V19.6186H27.1787V19.5093Z" fill="#000001"/>
<path d="M26.1904 19.5093C26.1904 19.4546 26.1158 19.4546 26.1158 19.5093V19.6186H26.1904V19.5093Z" fill="#000001"/>
<path d="M25.3436 24.9629C25.7013 24.6034 25.5309 24.2677 25.5309 24.2677C25.5243 24.2613 25.1553 24.0796 24.7911 24.4327L25.3436 24.9629Z" fill="#FFFF00"/>
<path d="M26.0122 24.7536L25.641 25.2032L25.3648 24.9317C25.7091 24.5979 25.499 24.2879 25.499 24.2879C25.4925 24.2815 25.1631 24.0999 24.8321 24.408L24.5558 24.1365L25.0323 23.7773L26.0122 24.7536ZM25.6541 25.229L24.5361 24.1299C24.5163 24.1105 24.4767 24.1104 24.4502 24.1361C24.4171 24.1682 24.417 24.2068 24.4367 24.2262L25.5548 25.3253C25.5745 25.3447 25.6141 25.3449 25.6472 25.3128C25.6737 25.2871 25.6739 25.2484 25.6476 25.2226L25.6541 25.229Z" fill="#FFFF00" stroke="black" stroke-width="0.0666669"/>
<path d="M25.2527 24.8214C25.4713 24.6096 25.3796 24.4031 25.3796 24.4031C25.3796 24.4031 25.1621 24.3186 24.9502 24.524L25.2527 24.8214ZM26.2302 24.6187L25.1581 23.5648C25.1384 23.5454 25.0922 23.5517 25.0657 23.5774C25.0458 23.5966 25.0457 23.6353 25.0654 23.6547L26.1375 24.7086C26.1572 24.728 26.1968 24.7281 26.2233 24.7024C26.2432 24.6832 26.2433 24.6445 26.2236 24.6251L26.2302 24.6187ZM26.1046 24.6891L25.0917 23.6934C25.072 23.674 25.0324 23.6739 25.0059 23.6996C24.9794 23.7253 24.9792 23.7639 24.999 23.7833L26.0184 24.7855C26.0447 24.8113 26.0778 24.805 26.1043 24.7793C26.1307 24.7536 26.1375 24.7215 26.1111 24.6956L26.1046 24.6891ZM26.4777 23.6854L26.3987 23.6078L26.3458 23.6592L26.2866 23.601L26.3395 23.5496L26.254 23.4656L26.1944 23.5233L26.1352 23.4651L26.2015 23.4009L26.1225 23.3234L25.9901 23.4517C25.9636 23.4774 25.9635 23.5032 25.9832 23.5226L26.2726 23.8071C26.2924 23.8265 26.3253 23.833 26.3452 23.8138L26.4777 23.6854ZM25.9963 23.5613L25.5528 23.9527L25.8356 24.2308L26.2463 23.7941L26.0029 23.5549" fill="#FFFF00"/>
<path d="M25.9963 23.5613L25.5528 23.9527L25.8356 24.2308L26.2463 23.7941L26.0029 23.5549M25.2527 24.8214C25.4713 24.6096 25.3796 24.4031 25.3796 24.4031C25.3796 24.4031 25.1621 24.3186 24.9502 24.524L25.2527 24.8214ZM26.2302 24.6187L25.1581 23.5648C25.1384 23.5454 25.0922 23.5517 25.0657 23.5774C25.0458 23.5966 25.0457 23.6353 25.0654 23.6547L26.1375 24.7086C26.1572 24.728 26.1968 24.7281 26.2233 24.7024C26.2432 24.6832 26.2433 24.6445 26.2236 24.6251L26.2302 24.6187ZM26.1046 24.6891L25.0917 23.6934C25.072 23.674 25.0324 23.6739 25.0059 23.6996C24.9794 23.7253 24.9792 23.7639 24.999 23.7833L26.0184 24.7855C26.0447 24.8113 26.0778 24.805 26.1043 24.7793C26.1307 24.7536 26.1375 24.7215 26.1111 24.6956L26.1046 24.6891ZM26.4777 23.6854L26.3987 23.6078L26.3458 23.6592L26.2866 23.601L26.3395 23.5496L26.254 23.4656L26.1944 23.5233L26.1352 23.4651L26.2015 23.4009L26.1225 23.3234L25.9901 23.4517C25.9636 23.4774 25.9635 23.5032 25.9832 23.5226L26.2726 23.8071C26.2924 23.8265 26.3253 23.833 26.3452 23.8138L26.4777 23.6854Z" stroke="black" stroke-width="0.0666669"/>
<path d="M26.1393 24.0895L25.9141 24.3078L26.1772 24.5664L26.4023 24.3481L26.1393 24.0895Z" fill="#FFFF00" stroke="black" stroke-width="0.0666669"/>
<path d="M25.443 23.405L25.2178 23.6232L25.4809 23.8818L25.7061 23.6636L25.443 23.405Z" fill="#FFFF00" stroke="black" stroke-width="0.0666669"/>
<path d="M26.6211 24.2271L26.5422 24.1495L26.476 24.2137L26.4168 24.1555L26.483 24.0913L26.4041 24.0137L26.3378 24.0779L26.2786 24.0197L26.3449 23.9555L26.2659 23.8779L26.1335 24.0063C26.107 24.032 26.1069 24.0578 26.1267 24.0772L26.4095 24.3552C26.4199 24.3654 26.4342 24.3713 26.449 24.3713C26.4639 24.3714 26.4781 24.3657 26.4887 24.3554L26.6211 24.2271Z" fill="#FFFF00" stroke="black" stroke-width="0.0666669"/>
<path d="M25.9229 23.5415L25.8439 23.4639L25.7777 23.5281L25.7185 23.4699L25.7847 23.4057L25.7058 23.3281L25.6396 23.3923L25.5804 23.3342L25.6466 23.27L25.5677 23.1924L25.4353 23.3208C25.4088 23.3464 25.4087 23.3722 25.4284 23.3916L25.7112 23.6696C25.7217 23.6799 25.7359 23.6857 25.7508 23.6858C25.7656 23.6858 25.7799 23.6801 25.7904 23.6699L25.9229 23.5415Z" fill="#FFFF00" stroke="black" stroke-width="0.0666669"/>
<path d="M26.0141 23.8385C26.0539 23.7999 25.9947 23.7417 25.9549 23.7803L25.849 23.883L25.9082 23.9412L26.0141 23.8385Z" fill="#000001"/>
<path d="M26.2173 24.3228C26.257 24.2843 26.2044 24.2326 26.1647 24.2711L26.0852 24.3481L26.1378 24.3999L26.2173 24.3228Z" fill="#000001"/>
<path d="M25.521 23.6363C25.5607 23.5978 25.5081 23.5461 25.4684 23.5846L25.3889 23.6616L25.4415 23.7133L25.521 23.6363Z" fill="#000001"/>
<path d="M21.71 20.7213C21.7083 20.9136 21.7817 21.0993 21.9153 21.2406C21.9777 21.3087 22.0538 21.3633 22.139 21.4009C22.2242 21.4386 22.3165 21.4585 22.41 21.4593C22.606 21.4593 22.7833 21.3682 22.9047 21.2406C23.0383 21.0993 23.1117 20.9136 23.11 20.7213V19.7373H21.71V20.7213Z" fill="#003399"/>
<path d="M22.0365 20.2479C22.1138 20.2479 22.1765 20.1868 22.1765 20.1113C22.1765 20.0358 22.1138 19.9746 22.0365 19.9746C21.9592 19.9746 21.8965 20.0358 21.8965 20.1113C21.8965 20.1868 21.9592 20.2479 22.0365 20.2479Z" fill="white"/>
<path d="M22.8119 20.2479C22.8892 20.2479 22.9519 20.1868 22.9519 20.1113C22.9519 20.0358 22.8892 19.9746 22.8119 19.9746C22.7346 19.9746 22.6719 20.0358 22.6719 20.1113C22.6719 20.1868 22.7346 20.2479 22.8119 20.2479Z" fill="white"/>
<path d="M22.4193 20.6122C22.4966 20.6122 22.5593 20.551 22.5593 20.4755C22.5593 20.4001 22.4966 20.3389 22.4193 20.3389C22.342 20.3389 22.2793 20.4001 22.2793 20.4755C22.2793 20.551 22.342 20.6122 22.4193 20.6122Z" fill="white"/>
<path d="M22.0365 20.9945C22.1138 20.9945 22.1765 20.9333 22.1765 20.8579C22.1765 20.7824 22.1138 20.7212 22.0365 20.7212C21.9592 20.7212 21.8965 20.7824 21.8965 20.8579C21.8965 20.9333 21.9592 20.9945 22.0365 20.9945Z" fill="white"/>
<path d="M22.8119 20.9945C22.8892 20.9945 22.9519 20.9333 22.9519 20.8579C22.9519 20.7824 22.8892 20.7212 22.8119 20.7212C22.7346 20.7212 22.6719 20.7824 22.6719 20.8579C22.6719 20.9333 22.7346 20.9945 22.8119 20.9945Z" fill="white"/>
<path d="M21.71 18.3527C21.7083 18.545 21.7817 18.7307 21.9153 18.872C21.9777 18.94 22.0538 18.9946 22.139 19.0323C22.2242 19.0699 22.3165 19.0898 22.41 19.0907C22.606 19.0907 22.7833 18.9995 22.9047 18.872C23.0383 18.7307 23.1117 18.545 23.11 18.3527V17.3687H21.71V18.3527Z" fill="#003399"/>
<path d="M22.0365 17.8793C22.1138 17.8793 22.1765 17.8181 22.1765 17.7426C22.1765 17.6671 22.1138 17.606 22.0365 17.606C21.9592 17.606 21.8965 17.6671 21.8965 17.7426C21.8965 17.8181 21.9592 17.8793 22.0365 17.8793Z" fill="white"/>
<path d="M22.8119 17.8793C22.8892 17.8793 22.9519 17.8181 22.9519 17.7426C22.9519 17.6671 22.8892 17.606 22.8119 17.606C22.7346 17.606 22.6719 17.6671 22.6719 17.7426C22.6719 17.8181 22.7346 17.8793 22.8119 17.8793Z" fill="white"/>
<path d="M22.4193 18.2435C22.4966 18.2435 22.5593 18.1824 22.5593 18.1069C22.5593 18.0314 22.4966 17.9702 22.4193 17.9702C22.342 17.9702 22.2793 18.0314 22.2793 18.1069C22.2793 18.1824 22.342 18.2435 22.4193 18.2435Z" fill="white"/>
<path d="M22.0365 18.6259C22.1138 18.6259 22.1765 18.5647 22.1765 18.4892C22.1765 18.4137 22.1138 18.3525 22.0365 18.3525C21.9592 18.3525 21.8965 18.4137 21.8965 18.4892C21.8965 18.5647 21.9592 18.6259 22.0365 18.6259Z" fill="white"/>
<path d="M22.8119 18.6259C22.8892 18.6259 22.9519 18.5647 22.9519 18.4892C22.9519 18.4137 22.8892 18.3525 22.8119 18.3525C22.7346 18.3525 22.6719 18.4137 22.6719 18.4892C22.6719 18.5647 22.7346 18.6259 22.8119 18.6259Z" fill="white"/>
<path d="M19.7686 20.7213C19.7669 20.9136 19.8403 21.0993 19.9739 21.2406C20.0362 21.3087 20.1124 21.3633 20.1976 21.4009C20.2828 21.4386 20.3751 21.4585 20.4686 21.4593C20.6646 21.4593 20.8419 21.3682 20.9633 21.2406C21.0969 21.0993 21.1703 20.9136 21.1686 20.7213V19.7373H19.7686V20.7213Z" fill="#003399"/>
<path d="M20.0951 20.2479C20.1724 20.2479 20.2351 20.1868 20.2351 20.1113C20.2351 20.0358 20.1724 19.9746 20.0951 19.9746C20.0178 19.9746 19.9551 20.0358 19.9551 20.1113C19.9551 20.1868 20.0178 20.2479 20.0951 20.2479Z" fill="white"/>
<path d="M20.8705 20.2479C20.9478 20.2479 21.0105 20.1868 21.0105 20.1113C21.0105 20.0358 20.9478 19.9746 20.8705 19.9746C20.7931 19.9746 20.7305 20.0358 20.7305 20.1113C20.7305 20.1868 20.7931 20.2479 20.8705 20.2479Z" fill="white"/>
<path d="M20.4779 20.6122C20.5552 20.6122 20.6179 20.551 20.6179 20.4755C20.6179 20.4001 20.5552 20.3389 20.4779 20.3389C20.4006 20.3389 20.3379 20.4001 20.3379 20.4755C20.3379 20.551 20.4006 20.6122 20.4779 20.6122Z" fill="white"/>
<path d="M20.0951 20.9945C20.1724 20.9945 20.2351 20.9333 20.2351 20.8579C20.2351 20.7824 20.1724 20.7212 20.0951 20.7212C20.0178 20.7212 19.9551 20.7824 19.9551 20.8579C19.9551 20.9333 20.0178 20.9945 20.0951 20.9945Z" fill="white"/>
<path d="M20.8705 20.9945C20.9478 20.9945 21.0105 20.9333 21.0105 20.8579C21.0105 20.7824 20.9478 20.7212 20.8705 20.7212C20.7931 20.7212 20.7305 20.7824 20.7305 20.8579C20.7305 20.9333 20.7931 20.9945 20.8705 20.9945Z" fill="white"/>
<path d="M23.6514 20.7213C23.6497 20.9136 23.7231 21.0993 23.8567 21.2406C23.9191 21.3087 23.9953 21.3633 24.0804 21.4009C24.1656 21.4386 24.2579 21.4585 24.3514 21.4593C24.5474 21.4593 24.7247 21.3682 24.8461 21.2406C24.9797 21.0993 25.0531 20.9136 25.0514 20.7213V19.7373H23.6514V20.7213Z" fill="#003399"/>
<path d="M23.9779 20.2479C24.0552 20.2479 24.1179 20.1868 24.1179 20.1113C24.1179 20.0358 24.0552 19.9746 23.9779 19.9746C23.9006 19.9746 23.8379 20.0358 23.8379 20.1113C23.8379 20.1868 23.9006 20.2479 23.9779 20.2479Z" fill="white"/>
<path d="M24.7533 20.2479C24.8306 20.2479 24.8933 20.1868 24.8933 20.1113C24.8933 20.0358 24.8306 19.9746 24.7533 19.9746C24.676 19.9746 24.6133 20.0358 24.6133 20.1113C24.6133 20.1868 24.676 20.2479 24.7533 20.2479Z" fill="white"/>
<path d="M24.3607 20.6122C24.438 20.6122 24.5007 20.551 24.5007 20.4755C24.5007 20.4001 24.438 20.3389 24.3607 20.3389C24.2834 20.3389 24.2207 20.4001 24.2207 20.4755C24.2207 20.551 24.2834 20.6122 24.3607 20.6122Z" fill="white"/>
<path d="M23.9779 20.9945C24.0552 20.9945 24.1179 20.9333 24.1179 20.8579C24.1179 20.7824 24.0552 20.7212 23.9779 20.7212C23.9006 20.7212 23.8379 20.7824 23.8379 20.8579C23.8379 20.9333 23.9006 20.9945 23.9779 20.9945Z" fill="white"/>
<path d="M24.7533 20.9945C24.8306 20.9945 24.8933 20.9333 24.8933 20.8579C24.8933 20.7824 24.8306 20.7212 24.7533 20.7212C24.676 20.7212 24.6133 20.7824 24.6133 20.8579C24.6133 20.9333 24.676 20.9945 24.7533 20.9945Z" fill="white"/>
<path d="M21.71 23.0724C21.7083 23.2647 21.7817 23.4504 21.9153 23.5917C21.9777 23.6598 22.0538 23.7143 22.139 23.752C22.2242 23.7897 22.3165 23.8095 22.41 23.8104C22.606 23.8104 22.7833 23.7193 22.9047 23.5917C23.0383 23.4504 23.1117 23.2647 23.11 23.0724V22.0884H21.71V23.0724Z" fill="#003399"/>
<path d="M22.0365 22.599C22.1138 22.599 22.1765 22.5378 22.1765 22.4624C22.1765 22.3869 22.1138 22.3257 22.0365 22.3257C21.9592 22.3257 21.8965 22.3869 21.8965 22.4624C21.8965 22.5378 21.9592 22.599 22.0365 22.599Z" fill="white"/>
<path d="M22.8119 22.599C22.8892 22.599 22.9519 22.5378 22.9519 22.4624C22.9519 22.3869 22.8892 22.3257 22.8119 22.3257C22.7346 22.3257 22.6719 22.3869 22.6719 22.4624C22.6719 22.5378 22.7346 22.599 22.8119 22.599Z" fill="white"/>
<path d="M22.4193 22.9633C22.4966 22.9633 22.5593 22.9021 22.5593 22.8266C22.5593 22.7511 22.4966 22.6899 22.4193 22.6899C22.342 22.6899 22.2793 22.7511 22.2793 22.8266C22.2793 22.9021 22.342 22.9633 22.4193 22.9633Z" fill="white"/>
<path d="M22.0365 23.3456C22.1138 23.3456 22.1765 23.2844 22.1765 23.2089C22.1765 23.1335 22.1138 23.0723 22.0365 23.0723C21.9592 23.0723 21.8965 23.1335 21.8965 23.2089C21.8965 23.2844 21.9592 23.3456 22.0365 23.3456Z" fill="white"/>
<path d="M22.8119 23.3456C22.8892 23.3456 22.9519 23.2844 22.9519 23.2089C22.9519 23.1335 22.8892 23.0723 22.8119 23.0723C22.7346 23.0723 22.6719 23.1335 22.6719 23.2089C22.6719 23.2844 22.7346 23.3456 22.8119 23.3456Z" fill="white"/>
</g>
<defs>
<clipPath id="clip0_73_1565">
<rect width="56" height="41" rx="6" fill="white"/>
</clipPath>
</defs>
</svg>
