<svg width="56" height="40" viewBox="0 0 56 40" fill="none" xmlns="http://www.w3.org/2000/svg">
<g clip-path="url(#clip0_73_2936)">
<path d="M0 0H56V40H0V0Z" fill="#012169"/>
<path d="M6.5625 0L27.9125 15.0833L49.175 0H56V5.16667L35 20.0833L56 34.9167V40H49L28 25.0833L7.0875 40H0V35L20.9125 20.1667L0 5.33333V0H6.5625Z" fill="white"/>
<path d="M37.1 23.4167L56 36.6667V40L32.2875 23.4167H37.1ZM21 25.0833L21.525 28L4.725 40H0L21 25.0833ZM56 0V0.25L34.2125 15.9167L34.3875 12.25L51.625 0H56ZM0 0L20.9125 14.6667H15.6625L0 3.5V0Z" fill="#C8102E"/>
<path d="M21.0875 0V40H35.0875V0H21.0875ZM0 13.3333V26.6667H56V13.3333H0Z" fill="white"/>
<path d="M0 16.0833V24.0833H56V16.0833H0ZM23.8875 0V40H32.2875V0H23.8875Z" fill="#C8102E"/>
</g>
<defs>
<clipPath id="clip0_73_2936">
<rect width="56" height="40" rx="6" fill="white"/>
</clipPath>
</defs>
</svg>
